<svg width="409" height="19" viewBox="0 0 409 19" fill="none" xmlns="http://www.w3.org/2000/svg">
<g clip-path="url(#clip0_432_2373)">
<path d="M8.21064 6.00712V4.64443C8.21064 3.13729 7.5881 2.51475 5.79206 2.51475C4.02159 2.51475 3.39905 3.13729 3.39905 4.64443V13.3574C3.39905 14.8646 3.9973 15.4897 5.76905 15.4897C7.49222 15.4897 8.23493 14.3878 8.23493 12.639V10.6091H5.38555V8.11507H11.6327V17.6897H8.69256V16.3244C8.2335 16.9195 7.62892 17.3862 6.93708 17.6798C6.24524 17.9733 5.48946 18.0837 4.74256 18.0003C1.72317 18.0016 0 16.7552 0 12.7106V5.48045C0 1.43585 2.34571 -0.000976562 5.84064 -0.000976562C9.28826 -0.000976562 11.6327 1.57902 11.6327 4.69045V6.00712H8.21064Z" fill="white"/>
<path d="M25.1816 0.334961V2.8916H18.4308V7.27751H24.5105V9.81369H18.4308V15.1264H25.1816V17.683H15.0317V0.334961H25.1816Z" fill="white"/>
<path d="M40.5034 0.334961V17.6894H36.3131L31.7418 4.42814V17.6894H28.3428V0.334961H32.5344L37.1082 13.5016V0.334961H40.5034Z" fill="white"/>
<path d="M54.6278 0.334961V2.8916H50.3672V17.6894H46.9669V2.89671H42.7075V0.340074L54.6278 0.334961Z" fill="white"/>
<path d="M60.229 15.1277H66.9312V17.6843H56.8325V0.334961H60.2303L60.229 15.1277Z" fill="white"/>
<path d="M79.2841 0.334961V2.8916H72.5345V7.27751H78.6155V9.81369H72.5345V15.1264H79.2841V17.683H69.1304V0.334961H79.2841Z" fill="white"/>
<path d="M103.205 0.334961V17.6894H99.8048V4.35527L96.9095 17.6894H94.225L91.3322 4.28496V17.6894H87.9331V0.334961H92.7191L95.5672 13.5962L98.4166 0.334961H103.205Z" fill="white"/>
<path d="M118.12 5.67105V12.3503C118.12 16.5866 116.061 18.0004 112.327 18.0004C108.593 18.0004 106.534 16.5866 106.534 12.3503V5.67105C106.534 1.4347 108.593 0.0234375 112.327 0.0234375C116.061 0.0234375 118.12 1.42959 118.12 5.67105ZM114.72 4.86443C114.72 3.06839 114.097 2.54172 112.327 2.54172C110.557 2.54172 109.931 3.062 109.931 4.86443V13.1939C109.931 14.967 110.555 15.4949 112.327 15.4949C114.099 15.4949 114.72 14.9683 114.72 13.1939V4.86443Z" fill="white"/>
<path d="M133.607 0.334961V17.6894H129.418L124.853 4.42814V17.6894H121.453V0.334961H125.642L130.215 13.5016V0.334961H133.607Z" fill="white"/>
<path d="M147.66 4.37995V5.4026H144.257V4.54868C144.257 3.11185 144.043 2.4663 142.368 2.4663C140.738 2.4663 140.499 3.11185 140.499 4.30836C140.456 4.73083 140.546 5.15608 140.756 5.5251C140.966 5.89411 141.286 6.18861 141.671 6.36773L144.975 8.49741C146.796 9.67091 147.849 10.3663 147.849 13.4292C147.849 16.5176 145.86 18.0017 142.509 18.0017C138.538 18.0017 136.932 16.5879 136.932 13.4534V11.9911H140.358V13.2847C140.358 15.128 140.932 15.5576 142.512 15.5576C144.092 15.5576 144.429 14.8391 144.429 13.5941C144.499 13.0845 144.405 12.566 144.159 12.114C143.914 11.662 143.531 11.3001 143.066 11.0809L139.833 8.87963C137.821 7.51694 137.078 6.86883 137.078 4.30708C137.078 2.13394 138.323 0.0234375 142.37 0.0234375C146.318 0.0234375 147.659 1.7709 147.659 4.37995" fill="white"/>
<path d="M161.329 0.334961V2.8916H157.068V17.6894H153.668V2.89671H149.409V0.340074L161.329 0.334961Z" fill="white"/>
<path d="M173.681 0.334961V2.8916H166.929V7.27751H173.009V9.81369H166.929V15.1264H173.68V17.683H163.53V0.334961H173.681Z" fill="white"/>
<path d="M187.778 11.8258V15.5597C187.735 16.324 187.965 17.0789 188.427 17.6894H184.906C184.545 17.0468 184.364 16.3194 184.379 15.5827V11.8258C184.379 10.4119 183.83 10.0054 182.609 10.0054H180.238V17.6894H176.84V0.334961H183.065C187.588 0.334961 188.185 2.77527 188.185 5.16828C188.185 7.11005 187.162 8.49191 184.716 8.85751C186.749 9.02497 187.784 10.1499 187.784 11.8258H187.778ZM182.585 7.44369C184.428 7.44369 184.74 6.65497 184.74 5.16828C184.74 3.6816 184.475 2.89671 182.636 2.89671H180.24V7.44369H182.585Z" fill="white"/>
<path d="M265.304 7.05883H259.605V0.347656H256.231V17.6753H259.605V10.0284H265.304V17.6765H268.649V0.347656H265.304V7.05883Z" fill="white"/>
<path d="M281.945 8.38522C282.531 8.05738 283.014 7.57272 283.34 6.98564C283.665 6.39856 283.821 5.73228 283.789 5.06159C283.789 1.77248 282.119 0.320312 278.451 0.320312H271.571V17.676H279.221C282.829 17.676 284.404 15.765 284.404 12.2751C284.399 11.4614 284.166 10.6654 283.731 9.97769C283.296 9.28999 282.677 8.73823 281.944 8.38522H281.945ZM274.913 3.19781H277.914C279.903 3.19781 280.268 3.83697 280.268 5.31726C280.304 5.56879 280.282 5.82517 280.205 6.06724C280.128 6.30931 279.997 6.53082 279.822 6.7152C279.647 6.89959 279.433 7.04209 279.195 7.13205C278.958 7.22202 278.703 7.25712 278.45 7.23474H274.914L274.913 3.19781ZM278.529 14.8024H274.913V9.93838H278.279C278.631 9.88443 278.99 9.91343 279.329 10.0231C279.668 10.1327 279.976 10.32 280.23 10.5699C280.483 10.8199 280.675 11.1256 280.789 11.4627C280.904 11.7998 280.938 12.159 280.889 12.5116C280.889 14.3166 280.343 14.8049 278.528 14.8049" fill="white"/>
<path d="M294.681 0.347656H291.34L285.732 17.6548H289.272L290.254 14.3133H295.786L296.769 17.6548H300.266L294.681 0.347656ZM291.09 11.5317L291.925 8.58386L293.011 4.23758L294.114 8.58386L294.95 11.5317H291.09Z" fill="white"/>
<path d="M235.012 10.0129C235.148 10.0177 235.284 9.99511 235.411 9.94637C235.538 9.89764 235.654 9.82379 235.752 9.72924C235.85 9.63469 235.928 9.52138 235.981 9.39606C236.035 9.27074 236.062 9.13598 236.062 8.99983C236.062 8.86368 236.035 8.72892 235.981 8.6036C235.928 8.47828 235.85 8.36497 235.752 8.27042C235.654 8.17587 235.538 8.10202 235.411 8.05329C235.284 8.00455 235.148 7.98193 235.012 7.98676H226.017V6.7404L226.873 5.88393H235.012C235.281 5.88393 235.538 5.77733 235.728 5.58758C235.918 5.39784 236.024 5.14048 236.024 4.87214C236.024 4.6038 235.918 4.34644 235.728 4.1567C235.538 3.96695 235.281 3.86035 235.012 3.86035H226.031L224.581 5.30996H220.068L218.617 3.86035H209.639C209.371 3.86035 209.113 3.96695 208.924 4.1567C208.734 4.34644 208.627 4.6038 208.627 4.87214C208.627 5.14048 208.734 5.39784 208.924 5.58758C209.113 5.77733 209.371 5.88393 209.639 5.88393H217.777L218.633 6.7404V7.98676H209.639C209.503 7.98193 209.367 8.00455 209.24 8.05329C209.113 8.10202 208.997 8.17587 208.899 8.27042C208.801 8.36497 208.723 8.47828 208.67 8.6036C208.617 8.72892 208.589 8.86368 208.589 8.99983C208.589 9.13598 208.617 9.27074 208.67 9.39606C208.723 9.52138 208.801 9.63469 208.899 9.72924C208.997 9.82379 209.113 9.89764 209.24 9.94637C209.367 9.99511 209.503 10.0177 209.639 10.0129H218.633V11.2554L217.777 12.1132H209.639C209.371 12.1132 209.113 12.2198 208.923 12.4097C208.733 12.5996 208.627 12.8571 208.627 13.1256C208.627 13.3941 208.733 13.6516 208.923 13.8415C209.113 14.0314 209.371 14.138 209.639 14.138H218.617L220.062 12.6897H224.583L226.028 14.138H235.01C235.278 14.138 235.536 14.0314 235.726 13.8415C235.916 13.6516 236.022 13.3941 236.022 13.1256C236.022 12.8571 235.916 12.5996 235.726 12.4097C235.536 12.2198 235.278 12.1132 235.01 12.1132H226.871L226.014 11.2554V10.0129H235.012ZM223.986 10.6648H220.662V7.33354H223.986V10.6648Z" fill="white"/>
</g>
<path d="M372.5 0H376.969L385.163 9.2655L376.969 18.531H372.5L380.694 9.2655L372.5 0Z" fill="white"/>
<path d="M384.418 0H388.888L397.082 9.2655L388.888 18.531H384.418L392.612 9.2655L384.418 0Z" fill="white"/>
<path d="M396.337 0H400.806L409 9.2655L400.806 18.531H396.337L404.531 9.2655L396.337 0Z" fill="white"/>
<defs>
<clipPath id="clip0_432_2373">
<rect width="300.265" height="18" fill="white"/>
</clipPath>
</defs>
</svg>
